<svg xmlns="http://www.w3.org/2000/svg" xmlns:svg="http://www.w3.org/2000/svg" id="svg1" width="16" height="16" version="1.1" viewBox="0 0 16 16"><style id="s0">.success{fill:#009909}</style><style id="s2">@import &apos;../../highlights.css&apos;;</style><metadata id="metadata199"/><g id="align-horizontal-center" transform="matrix(0.666667,0,0,0.666666,-746.66667,-396.90779)"><path id="rect22217" d="m -1144,595.36218 h 24 v 24 h -24 z" transform="scale(-1,1)" style="opacity:0;fill:none"/><path id="rect22219" d="m 1132.7494,595.36218 h -1.5 v 24 h 1.5 z" class="success" style="opacity:1;fill-opacity:1"/><path style="opacity:1" id="rect22225" d="m 1123.9994,607.3622 v 4 h 6 v -4 z m 9.95,0 v 4 h 6 v -4 z m -7.95,-5 v 3 h 4 v -3 z m 7.95,0 v 3 h 4 v -3 z m -10.95,-7 v 5 h 7 v -5 z m 10.95,0 v 5 h 7 v -5 z"/><path style="opacity:.5" id="path22227" d="m 4.6660156,12 v 1.333984 H 0 v 1.332032 H 4.6660156 V 16 l 2,-2 z m 6.6679684,0 -1.9999996,2 1.9999996,2 V 14.666016 H 16 v -1.332032 h -4.666016 z" transform="matrix(1.4999993,0,0,1.5000015,1119.9994,595.36228)"/></g></svg>