<svg xmlns="http://www.w3.org/2000/svg" xmlns:svg="http://www.w3.org/2000/svg" id="svg1" width="16" height="16" version="1.1" viewBox="0 0 16 16"><style id="s0">.success{fill:#009909}</style><style id="s2">@import &apos;../../highlights.css&apos;;</style><metadata id="metadata502"/><g id="align-horizontal-right" transform="matrix(0.666667,0,0,0.666666,-772,-396.90779)"><g id="g22329" transform="matrix(-1,0,0,1,2264,0)"><g id="g22331"><path style="opacity:0;fill:none" id="rect22333" d="m -1106,595.36218 h 24 v 24 h -24 z" transform="scale(-1,1)"/><path style="opacity:1;fill-opacity:1" id="rect22335" d="m 1086,595.36218 h -1.5 v 24 h 1.5 z" class="success"/><path style="opacity:1" id="rect22337" d="m -1103,595.36218 h 16 v 5 h -16 z" transform="scale(-1,1)"/><path style="opacity:1" id="rect22339" d="m -1097,602.36218 h 10 v 3.00001 h -10 z" transform="scale(-1,1)"/><path style="opacity:1" id="rect22341" d="m -1101,607.36218 h 14 v 4 h -14 z" transform="scale(-1,1)"/><path id="path22343" d="m 10.667969,12 v 1.333984 H 4.6679688 v 1.332032 H 10.667969 V 16 l 2,-2 z" transform="matrix(-1.4999993,0,0,1.5000015,1106.0006,595.36228)" style="opacity:1;fill-opacity:.501961"/></g></g></g></svg>